<svg id="Capa_1" data-name="Capa 1" xmlns="http://www.w3.org/2000/svg" width="153" height="38" viewBox="0 0 153 38"><defs><style>.cls-1{fill:#b40f19;fill-rule:evenodd;}.cls-2{fill:#8b8b8b;}</style></defs><title>logo</title><path class="cls-1" d="M92.13,7.08c.1,0,.14.08.22.08s.21.12.24.25.1.44.14.66c.38,1.89.75,3.78,1.13,5.68,0,.2.07.4.11.6s.09.25.3.25h2.12c.24,0,.28,0,.23-.28-.18-1-.37-2-.55-2.94-.49-2.63-1-5.26-1.46-7.88-.17-.91-.33-1.81-.5-2.72a.68.68,0,0,1,0-.14c0-.18,0-.23.21-.24h7.83a1.06,1.06,0,0,1,.35,0,.46.46,0,0,1,.32.35c0,.2.09.4.14.6q.7,3.36,1.42,6.72.93,4.44,1.88,8.88c.55,2.56,1.09,5.22,1.64,7.78.12.57,0,.68-.55.68H99.5a.8.8,0,0,1-.41-.05.68.68,0,0,1-.39-.5c-.26-1.49-.55-3.06-.83-4.54l-.51-2.68c-.1-.48-.1-.48-.6-.48H94.94c-.3,0-.35.07-.3.36s.11.67.18,1L96,24.88c.07.37,0,.55-.39.57H87.5a1.11,1.11,0,0,1-.67-.21.24.24,0,0,1-.1-.32l.33-1,2.1-7,1.74-5.76L92,7.35A.56.56,0,0,1,92.13,7.08Z"/><path class="cls-1" d="M33.61,1c0-.13,0-.27,0-.4s0-.21.18-.21a4.17,4.17,0,0,1,.5,0A10.83,10.83,0,0,1,36.85,1a11.18,11.18,0,0,1,3.56,2.12,10,10,0,0,1,1.35,1.41,12.73,12.73,0,0,1,2,3.46,13.26,13.26,0,0,1,.83,3.35,12.12,12.12,0,0,1,.1,1.59,13.89,13.89,0,0,1-1.2,5.53,12.72,12.72,0,0,1-2,3.06,12.53,12.53,0,0,1-2.16,1.95,10.83,10.83,0,0,1-5,1.91.72.72,0,0,1-.57-.08.41.41,0,0,1-.22-.4c0-.1,0-.21,0-.32S33.61,8.86,33.61,1Z"/><path class="cls-1" d="M31.94,1c0-.13,0-.27,0-.4S31.9.38,31.77.38a4,4,0,0,0-.49,0A10.67,10.67,0,0,0,28.73,1,11,11,0,0,0,25.2,3.13a10.53,10.53,0,0,0-1.34,1.41,12.93,12.93,0,0,0-2,3.46,13.68,13.68,0,0,0-.82,3.35,14.14,14.14,0,0,0-.1,1.59,13.89,13.89,0,0,0,1.2,5.53,12.23,12.23,0,0,0,4.06,5,10.73,10.73,0,0,0,5,1.91.7.7,0,0,0,.56-.08.4.4,0,0,0,.22-.4c0-.1,0-.21,0-.32S31.94,8.86,31.94,1Z"/><path class="cls-1" d="M139.39,12.93v11.7a1.83,1.83,0,0,1,0,.52.32.32,0,0,1-.33.3h-.24c-2.57,0-5.14,0-7.72,0a.72.72,0,0,1-.53-.16.38.38,0,0,1-.14-.28v-.15q0-11.52,0-23.07a7.34,7.34,0,0,0,0-1.24.15.15,0,0,1,.15-.18H139c.25,0,.32.12.38.37a3.7,3.7,0,0,1,0,.47Z"/><path class="cls-1" d="M146.54,25.47h-4.88a1.71,1.71,0,0,1-.32,0c-.28,0-.38-.23-.38-.51,0-1,0-9.59,0-12.91C141,9.43,141,2,141,.82c0-.43,0-.43.39-.44h9.93a.88.88,0,0,1,.32,0c.22.09.27.21.12.4s-.32.37-.48.55c-.72.77-1.42,1.56-2.12,2.34-.47.53-1,1-1.43,1.57l-1.86,2.08-1.39,1.52-1.31,1.47c-.22.25-.45.48-.66.73s-.54.59-.81.88-.2.32,0,.55L144.48,16l2.85,3.46,2.42,3,2,2.47a.77.77,0,0,1,.19.29c.06.16,0,.27-.17.29a1.69,1.69,0,0,1-.32,0Z"/><path class="cls-1" d="M76.34,13V24.64a2,2,0,0,1,0,.49c-.06.26-.12.31-.37.33H67.22a.73.73,0,0,1-.55-.15.33.33,0,0,1-.15-.3,1.71,1.71,0,0,1,0-.32,5.57,5.57,0,0,0,0-.82q0-11.49,0-23c0-.44,0-.44.44-.45h8.71c.43,0,.58.13.61.57,0,.13,0,.25,0,.38Z"/><path class="cls-1" d="M77.91,7.78V1c0-.47,0-.49.48-.53a10.82,10.82,0,0,1,1.8,0A10.44,10.44,0,0,1,82.84,1a7.18,7.18,0,0,1,2.52,1.46,7.41,7.41,0,0,1,2.26,4.44,8.74,8.74,0,0,1-.47,4.47,5.87,5.87,0,0,1-1,1.61A6.64,6.64,0,0,1,82.74,15a12.11,12.11,0,0,1-2.09.31,13.45,13.45,0,0,1-2.2-.08.65.65,0,0,1-.41-.19.36.36,0,0,1-.13-.29v-7Z"/><path class="cls-1" d="M46.28,12.82c0-4,0-7.95,0-11.93,0-.46,0-.5.49-.5h8.58c.39,0,.54.17.55.56V24.65a3,3,0,0,1,0,.43.34.34,0,0,1-.35.33H47a.81.81,0,0,1-.52-.13.36.36,0,0,1-.19-.33V12.82Z"/><path class="cls-1" d="M65,20.18v4.57c0,.09,0,.19,0,.29,0,.26-.12.36-.38.37s-.37,0-.56,0H58.11a.77.77,0,0,1-.54-.16c-.13-.1-.13-.16,0-.28l.66-.92,1.38-2q1.91-2.73,3.8-5.48c.34-.49.67-1,1-1.49.05-.08.1-.22.21-.17s.34.09.35.31,0,.21,0,.32Z"/><path class="cls-1" d="M13.13,25.43h-.79a.79.79,0,0,1-.42-.12c-.25-.18-.26-.21-.1-.47a3,3,0,0,0,0-3.27A9.32,9.32,0,0,0,10.64,20c-.77-.88-1.58-1.72-2.37-2.57a46.17,46.17,0,0,1-4.75-5.87A14,14,0,0,1,1.89,8.43,7,7,0,0,1,1.42,5.9a7.92,7.92,0,0,1,.16-1.75A4.47,4.47,0,0,1,4.34,1,7.1,7.1,0,0,1,6.65.45c.33,0,.66,0,1,0a2.33,2.33,0,0,1,.53.07.29.29,0,0,1,.22.4,1.6,1.6,0,0,1-.13.3A3.12,3.12,0,0,0,7.9,2.47a2.63,2.63,0,0,0,.31,1.45,8.55,8.55,0,0,0,1,1.39c.69.81,1.46,1.55,2.19,2.33s1.36,1.36,2,2.07,1.08,1.16,1.6,1.75,1,1.18,1.47,1.79A15.6,15.6,0,0,1,19,17.66a7,7,0,0,1,.38,2.68,5.61,5.61,0,0,1-.84,2.78,4.53,4.53,0,0,1-1.43,1.36,7.13,7.13,0,0,1-2.68.89A9.29,9.29,0,0,1,13.13,25.43Z"/><path class="cls-1" d="M5.68,25.44h-4a.87.87,0,0,1-.52-.14A.34.34,0,0,1,1,25c0-.22,0-.44,0-.67V15.15c0-.18,0-.37,0-.55s0-.2.2-.16a.93.93,0,0,1,.54.37c.83,1,1.68,2.06,2.51,3.08l1.84,2.28L8.83,23.5c.41.5.82,1,1.22,1.51.17.22.1.39-.18.42H5.68Z"/><path class="cls-1" d="M17.5,5V8.94c0,.09,0,.19,0,.29a.25.25,0,0,1-.41.19.52.52,0,0,1-.18-.18c-1.66-2.07-3.31-4.15-5-6.22L10.22.89,10.1.72C10,.49,10,.45,10.23.42h6.83a.43.43,0,0,1,.44.48V5Z"/><path class="cls-1" d="M119.66,12.94V24.79c0,.1,0,.21,0,.32a.34.34,0,0,1-.38.36,3,3,0,0,1-.66-.08,10.51,10.51,0,0,1-4.27-1.73,10.35,10.35,0,0,1-3.21-3.59,14.08,14.08,0,0,1-1.5-4.91,21.77,21.77,0,0,1-.12-3.7A12.45,12.45,0,0,1,110,8.69a12.2,12.2,0,0,1,1.63-3.6,10.58,10.58,0,0,1,3.49-3.23,13.83,13.83,0,0,1,4-1.47.65.65,0,0,1,.39,0,.31.31,0,0,1,.21.3V12.94Z"/><path class="cls-1" d="M128.82,21.06V24.9a2.81,2.81,0,0,1,0,.29c0,.2-.09.27-.29.29h-6.65a.84.84,0,0,1-.55-.17c-.12-.11-.13-.12,0-.25s.34-.39.5-.59c.84-1,1.68-2,2.51-3s1.62-1.91,2.42-2.87c.46-.54.9-1.09,1.35-1.64l.18-.22c.08-.07.13-.2.28-.12s.28.11.27.32v4.09Z"/><path class="cls-1" d="M128.82,4.86v3.8a1,1,0,0,1,0,.38c-.06.15-.15.19-.3.11a.82.82,0,0,1-.27-.22c-1.15-1.4-2.31-2.79-3.48-4.19L121.65,1c-.12-.13-.22-.28-.33-.41s-.11-.11-.08-.18.14-.06.21-.07h6.84c.4,0,.53.15.53.54C128.83,2.22,128.82,3.54,128.82,4.86Z"/><path class="cls-2" d="M4.75,35.82a1.71,1.71,0,0,1-.16.77,1.57,1.57,0,0,1-.44.58,1.93,1.93,0,0,1-.65.35,2.66,2.66,0,0,1-.82.12,3.24,3.24,0,0,1-.56,0,3.71,3.71,0,0,1-.46-.13,1.92,1.92,0,0,1-.35-.16.84.84,0,0,1-.19-.14A.37.37,0,0,1,1,37a.82.82,0,0,1,0-.24v-.17a.53.53,0,0,1,0-.11s0,0,.05-.06l.07,0a.42.42,0,0,1,.18.08l.31.18a3.49,3.49,0,0,0,.45.18,2.25,2.25,0,0,0,.61.08,1.43,1.43,0,0,0,.48-.07,1.37,1.37,0,0,0,.38-.2,1,1,0,0,0,.24-.33,1,1,0,0,0,.08-.43.88.88,0,0,0-.11-.45,1.37,1.37,0,0,0-.31-.33A2.65,2.65,0,0,0,3,34.88l-.51-.24c-.17-.08-.33-.17-.5-.27A2.44,2.44,0,0,1,1.6,34a1.48,1.48,0,0,1-.31-.47,1.6,1.6,0,0,1-.12-.65,1.67,1.67,0,0,1,.13-.69,1.51,1.51,0,0,1,.39-.51,1.79,1.79,0,0,1,.58-.31A2.55,2.55,0,0,1,3,31.28a2.71,2.71,0,0,1,.4,0,2.23,2.23,0,0,1,.39.09,1.92,1.92,0,0,1,.32.14.9.9,0,0,1,.18.12l.06.07,0,.07s0,.06,0,.09,0,.09,0,.15,0,.11,0,.15,0,.09,0,.12a.15.15,0,0,1,0,.06.07.07,0,0,1-.06,0,.35.35,0,0,1-.16-.06l-.27-.15A1.67,1.67,0,0,0,3.47,32,1.53,1.53,0,0,0,3,32a1.16,1.16,0,0,0-.44.07.73.73,0,0,0-.31.18.8.8,0,0,0-.18.27,1,1,0,0,0-.06.34.9.9,0,0,0,.11.44,1.42,1.42,0,0,0,.32.33,2.56,2.56,0,0,0,.44.26l.5.24a4.11,4.11,0,0,1,.51.27,2.15,2.15,0,0,1,.44.34,1.7,1.7,0,0,1,.32.47A1.56,1.56,0,0,1,4.75,35.82Z"/><path class="cls-2" d="M13.15,34.39A4.71,4.71,0,0,1,13,35.74a2.86,2.86,0,0,1-.52,1,2.29,2.29,0,0,1-.86.64,2.89,2.89,0,0,1-1.22.23,3,3,0,0,1-1.18-.21,2.09,2.09,0,0,1-.83-.6,2.72,2.72,0,0,1-.48-1,5.52,5.52,0,0,1,0-2.68,2.89,2.89,0,0,1,.52-1,2.35,2.35,0,0,1,.87-.64,3.05,3.05,0,0,1,1.22-.23,3,3,0,0,1,1.16.21,2.19,2.19,0,0,1,.83.6,2.53,2.53,0,0,1,.49,1A4.9,4.9,0,0,1,13.15,34.39Zm-.85.06a5,5,0,0,0-.09-1,2.27,2.27,0,0,0-.3-.78,1.67,1.67,0,0,0-.57-.52,1.94,1.94,0,0,0-.88-.19,1.69,1.69,0,0,0-.88.21,1.64,1.64,0,0,0-.58.53,2.1,2.1,0,0,0-.32.78,4.75,4.75,0,0,0-.1.94,5.16,5.16,0,0,0,.09,1,2.24,2.24,0,0,0,.3.79,1.51,1.51,0,0,0,.57.52,1.91,1.91,0,0,0,.88.18,1.83,1.83,0,0,0,.89-.2,1.51,1.51,0,0,0,.58-.54,2.43,2.43,0,0,0,.32-.79A4.86,4.86,0,0,0,12.3,34.45Z"/><path class="cls-2" d="M19.75,37.19c0,.07,0,.12,0,.16a.81.81,0,0,1,0,.11l-.05.07-.08,0H16.9a.31.31,0,0,1-.2-.07.3.3,0,0,1-.1-.26V31.5a.14.14,0,0,1,0-.07.09.09,0,0,1,.06,0,.5.5,0,0,1,.13,0h.39a.35.35,0,0,1,.12,0s.06,0,.07,0a.14.14,0,0,1,0,.07v5.34h2.17l.08,0,.05.06,0,.11S19.75,37.13,19.75,37.19Z"/><path class="cls-2" d="M27.37,35.27a2.84,2.84,0,0,1-.16,1,2,2,0,0,1-.46.75,2,2,0,0,1-.73.46,2.76,2.76,0,0,1-1,.16,2.69,2.69,0,0,1-.92-.15,2,2,0,0,1-.71-.43,2,2,0,0,1-.45-.73,2.8,2.8,0,0,1-.16-1V31.5a.14.14,0,0,1,0-.07.09.09,0,0,1,.06,0,.42.42,0,0,1,.13,0h.38a.35.35,0,0,1,.13,0,.09.09,0,0,1,.06,0,.14.14,0,0,1,0,.07v3.73a2.72,2.72,0,0,0,.1.75,1.44,1.44,0,0,0,.3.53,1.27,1.27,0,0,0,.47.32,1.8,1.8,0,0,0,1.24,0,1.17,1.17,0,0,0,.47-.31,1.53,1.53,0,0,0,.29-.52,2.63,2.63,0,0,0,.1-.73V31.5a.08.08,0,0,1,0-.07.09.09,0,0,1,.06,0,.42.42,0,0,1,.13,0h.38a.35.35,0,0,1,.12,0s.06,0,.07,0a.14.14,0,0,1,0,.07Z"/><path class="cls-2" d="M35.19,36.68v.13s0,.07,0,.1l0,.08-.07.08a1,1,0,0,1-.19.14,2.63,2.63,0,0,1-.38.2,2.6,2.6,0,0,1-.51.15,2.48,2.48,0,0,1-.63.07,2.74,2.74,0,0,1-1.06-.2,2.21,2.21,0,0,1-.82-.6,2.75,2.75,0,0,1-.51-1,4.51,4.51,0,0,1-.18-1.33A4.45,4.45,0,0,1,31,33.17a2.94,2.94,0,0,1,.55-1,2.27,2.27,0,0,1,.84-.63,2.59,2.59,0,0,1,1.09-.22,2.21,2.21,0,0,1,.51.05,3.09,3.09,0,0,1,.46.12,2.55,2.55,0,0,1,.37.18,1,1,0,0,1,.23.17l.08.09,0,.08a.36.36,0,0,1,0,.11.66.66,0,0,1,0,.15c0,.06,0,.12,0,.16l0,.11a.18.18,0,0,1-.05.07l-.06,0a.36.36,0,0,1-.18-.09l-.31-.21a2.4,2.4,0,0,0-.45-.2,1.76,1.76,0,0,0-.64-.1,1.68,1.68,0,0,0-.74.17,1.52,1.52,0,0,0-.56.48,2.56,2.56,0,0,0-.37.78,3.8,3.8,0,0,0-.13,1.06,3.58,3.58,0,0,0,.13,1,2.23,2.23,0,0,0,.35.76,1.62,1.62,0,0,0,.58.46,1.86,1.86,0,0,0,.77.15,2,2,0,0,0,.63-.09,2.88,2.88,0,0,0,.46-.2l.32-.2a.32.32,0,0,1,.19-.1l0,0a.1.1,0,0,1,0,.05.37.37,0,0,1,0,.12A.87.87,0,0,1,35.19,36.68Z"/><path class="cls-2" d="M39.24,37.43a.14.14,0,0,1,0,.06.13.13,0,0,1-.07,0l-.12,0h-.39l-.12,0a.1.1,0,0,1-.07,0,.14.14,0,0,1,0-.06V31.5a.14.14,0,0,1,0-.07l.07,0a.42.42,0,0,1,.13,0H39a.35.35,0,0,1,.12,0s.06,0,.07,0a.14.14,0,0,1,0,.07Z"/><path class="cls-2" d="M48.1,34.39a4.71,4.71,0,0,1-.17,1.35,3,3,0,0,1-.52,1,2.29,2.29,0,0,1-.86.64,2.92,2.92,0,0,1-1.22.23,3,3,0,0,1-1.18-.21,2.09,2.09,0,0,1-.83-.6,2.57,2.57,0,0,1-.48-1,5.52,5.52,0,0,1,0-2.68,2.89,2.89,0,0,1,.52-1,2.35,2.35,0,0,1,.87-.64,3,3,0,0,1,1.21-.23,3,3,0,0,1,1.17.21,2.19,2.19,0,0,1,.83.6,2.53,2.53,0,0,1,.49,1A4.9,4.9,0,0,1,48.1,34.39Zm-.85.06a5,5,0,0,0-.09-1,2.09,2.09,0,0,0-.31-.78,1.55,1.55,0,0,0-.56-.52A2,2,0,0,0,45.4,32a1.74,1.74,0,0,0-.88.21,1.61,1.61,0,0,0-.57.53,2.1,2.1,0,0,0-.32.78,4.11,4.11,0,0,0-.1.94,5.16,5.16,0,0,0,.09,1,2.24,2.24,0,0,0,.3.79,1.55,1.55,0,0,0,.56.52,2,2,0,0,0,.89.18,1.86,1.86,0,0,0,.89-.2,1.51,1.51,0,0,0,.58-.54,2.43,2.43,0,0,0,.32-.79A4.86,4.86,0,0,0,47.25,34.45Z"/><path class="cls-2" d="M56.14,37.21a.34.34,0,0,1,0,.16.24.24,0,0,1-.08.11.41.41,0,0,1-.11.07h-.4a.78.78,0,0,1-.22,0,.54.54,0,0,1-.18-.1,1.12,1.12,0,0,1-.17-.19c0-.07-.11-.18-.18-.3l-1.85-3.51c-.09-.19-.19-.38-.29-.57s-.19-.4-.27-.58h0c0,.22,0,.46,0,.7s0,.47,0,.71v3.73a.14.14,0,0,1,0,.06.18.18,0,0,1-.07,0l-.12,0h-.4l-.12,0a.1.1,0,0,1-.06,0,.14.14,0,0,1,0-.06v-5.7a.29.29,0,0,1,.11-.27.33.33,0,0,1,.23-.09h.4a.75.75,0,0,1,.23,0,.38.38,0,0,1,.17.08.41.41,0,0,1,.14.15,1.37,1.37,0,0,1,.15.25l1.42,2.71c.09.16.18.32.26.48s.16.31.23.47l.23.45c.07.15.15.29.22.44h0c0-.25,0-.51,0-.78V31.51a.14.14,0,0,1,0-.06.1.1,0,0,1,.06-.05l.13,0h.39l.12,0a.1.1,0,0,1,.06.05.09.09,0,0,1,0,.06Z"/><path class="cls-2" d="M63.29,37.21v.15a.28.28,0,0,1,0,.11.1.1,0,0,1,0,.06l-.07,0H60.22a.35.35,0,0,1-.21-.07.33.33,0,0,1-.09-.26V31.71a.31.31,0,0,1,.09-.26.37.37,0,0,1,.21-.08H63.1l.07,0a.16.16,0,0,1,0,.07.23.23,0,0,1,0,.1c0,.05,0,.1,0,.16s0,.11,0,.15a.28.28,0,0,1,0,.11.13.13,0,0,1,0,.06l-.07,0H60.72V34h2a.11.11,0,0,1,.07,0,.1.1,0,0,1,.05.06.62.62,0,0,1,0,.1.81.81,0,0,1,0,.16.71.71,0,0,1,0,.15l0,.1a.12.12,0,0,1-.05,0l-.07,0h-2v2.21h2.41a.08.08,0,0,1,.07,0,.1.1,0,0,1,0,.06.23.23,0,0,1,0,.1Z"/><path class="cls-2" d="M70,35.82a1.86,1.86,0,0,1-.16.77,1.69,1.69,0,0,1-.44.58,1.93,1.93,0,0,1-.65.35,2.71,2.71,0,0,1-.82.12,3.24,3.24,0,0,1-.56,0,4.49,4.49,0,0,1-.47-.13,1.8,1.8,0,0,1-.34-.16.84.84,0,0,1-.19-.14.27.27,0,0,1-.08-.14.78.78,0,0,1,0-.24c0-.07,0-.13,0-.17a.53.53,0,0,1,0-.11.1.1,0,0,1,0-.06l.06,0a.41.41,0,0,1,.19.08l.31.18a3.49,3.49,0,0,0,.45.18,2.25,2.25,0,0,0,.61.08,1.43,1.43,0,0,0,.48-.07,1.37,1.37,0,0,0,.38-.2,1,1,0,0,0,.24-.33,1.14,1.14,0,0,0,.08-.43.88.88,0,0,0-.11-.45,1.6,1.6,0,0,0-.31-.33,2.65,2.65,0,0,0-.44-.25l-.51-.24a4.82,4.82,0,0,1-.5-.27,2.12,2.12,0,0,1-.43-.35,1.7,1.7,0,0,1-.32-.47,1.6,1.6,0,0,1-.12-.65,1.67,1.67,0,0,1,.14-.69A1.39,1.39,0,0,1,67,31.7a1.79,1.79,0,0,1,.58-.31,2.5,2.5,0,0,1,.74-.11,2.71,2.71,0,0,1,.4,0,2.23,2.23,0,0,1,.39.09,2.37,2.37,0,0,1,.32.14.9.9,0,0,1,.18.12l.06.07,0,.07s0,.06,0,.09v.3s0,.09,0,.12a.15.15,0,0,1,0,.06.07.07,0,0,1-.06,0,.35.35,0,0,1-.16-.06l-.27-.15a1.88,1.88,0,0,0-.38-.15,1.53,1.53,0,0,0-.49-.07,1.16,1.16,0,0,0-.44.07.73.73,0,0,0-.31.18.8.8,0,0,0-.18.27,1,1,0,0,0-.06.34.8.8,0,0,0,.11.44,1.37,1.37,0,0,0,.31.33,3.14,3.14,0,0,0,.45.26l.5.24a5,5,0,0,1,.51.27,2.15,2.15,0,0,1,.44.34,1.7,1.7,0,0,1,.32.47A1.56,1.56,0,0,1,70,35.82Z"/><path class="cls-2" d="M82.37,34.37a4.5,4.5,0,0,1-.2,1.4,2.68,2.68,0,0,1-.59,1,2.63,2.63,0,0,1-1,.59,4.13,4.13,0,0,1-1.34.19H78a.31.31,0,0,1-.2-.07.3.3,0,0,1-.1-.26V31.71a.29.29,0,0,1,.1-.26.32.32,0,0,1,.2-.08h1.38a3.75,3.75,0,0,1,1.33.21,2.49,2.49,0,0,1,.91.6,2.53,2.53,0,0,1,.56.94A4,4,0,0,1,82.37,34.37Zm-.85,0a3.48,3.48,0,0,0-.12-.93,1.92,1.92,0,0,0-.39-.75,1.78,1.78,0,0,0-.65-.49,2.73,2.73,0,0,0-1-.17h-.82v4.8h.83a3.08,3.08,0,0,0,1-.14,1.55,1.55,0,0,0,.66-.46,2,2,0,0,0,.41-.76A4.37,4.37,0,0,0,81.52,34.4Z"/><path class="cls-2" d="M89.16,37.21c0,.06,0,.11,0,.15a.28.28,0,0,1,0,.11.1.1,0,0,1,0,.06l-.07,0H86.08a.31.31,0,0,1-.2-.07.3.3,0,0,1-.1-.26V31.71a.29.29,0,0,1,.1-.26.32.32,0,0,1,.2-.08H89l.07,0,0,.07a.62.62,0,0,1,0,.1.81.81,0,0,1,0,.16.66.66,0,0,1,0,.15.81.81,0,0,1,0,.11L89,32l-.07,0H86.59V34h2a.09.09,0,0,1,.07,0,.1.1,0,0,1,0,.06.15.15,0,0,1,0,.1.81.81,0,0,1,0,.16.71.71,0,0,1,0,.15.17.17,0,0,1,0,.1.12.12,0,0,1,0,0l-.07,0h-2v2.21H89a.08.08,0,0,1,.07,0,.1.1,0,0,1,0,.06.23.23,0,0,1,0,.1S89.16,37.15,89.16,37.21Z"/><path class="cls-2" d="M100.36,37.21c0,.06,0,.11,0,.15a.81.81,0,0,1,0,.11.17.17,0,0,1-.06.06l-.07,0H97.28a.31.31,0,0,1-.2-.07.3.3,0,0,1-.1-.26V31.71a.29.29,0,0,1,.1-.26.32.32,0,0,1,.2-.08h2.88l.07,0a.18.18,0,0,1,0,.07.62.62,0,0,1,0,.1.81.81,0,0,1,0,.16.66.66,0,0,1,0,.15.81.81,0,0,1,0,.11s0,0,0,.06l-.07,0H97.79V34h2a.09.09,0,0,1,.07,0,.1.1,0,0,1,0,.06.15.15,0,0,1,0,.1.81.81,0,0,1,0,.16.71.71,0,0,1,0,.15.17.17,0,0,1,0,.1.12.12,0,0,1,0,0l-.07,0h-2v2.21h2.4a.08.08,0,0,1,.07,0,.17.17,0,0,1,.06.06.62.62,0,0,1,0,.1S100.36,37.15,100.36,37.21Z"/><path class="cls-2" d="M110.44,37.43a.14.14,0,0,1,0,.06.13.13,0,0,1-.07,0l-.12,0h-.39l-.12,0a.13.13,0,0,1-.07,0,.14.14,0,0,1,0-.06V32.05h0l-2.14,5.4s0,0,0,.06l-.07,0-.12,0h-.33l-.12,0-.07,0a.05.05,0,0,1,0,0l-2-5.4h0v5.38a.14.14,0,0,1,0,.06.13.13,0,0,1-.07,0l-.12,0H104l-.12,0a.1.1,0,0,1-.06,0,.14.14,0,0,1,0-.06V31.75a.35.35,0,0,1,.11-.29.33.33,0,0,1,.23-.09h.49a1,1,0,0,1,.27,0,.61.61,0,0,1,.2.09.43.43,0,0,1,.14.16.7.7,0,0,1,.1.23l1.74,4.47h0L109,31.89a.9.9,0,0,1,.11-.24.56.56,0,0,1,.14-.16.51.51,0,0,1,.16-.09.66.66,0,0,1,.21,0h.52a.35.35,0,0,1,.14,0,.24.24,0,0,1,.11.06.35.35,0,0,1,.07.12.4.4,0,0,1,0,.17Z"/><path class="cls-2" d="M118.22,35.78a1.9,1.9,0,0,1-.07.54,1.63,1.63,0,0,1-.21.44,1.43,1.43,0,0,1-.31.34,2.06,2.06,0,0,1-.92.4,3.45,3.45,0,0,1-.6,0h-1.59a.31.31,0,0,1-.2-.07.3.3,0,0,1-.1-.26V31.71a.29.29,0,0,1,.1-.26.32.32,0,0,1,.2-.08h1.38a3.12,3.12,0,0,1,.89.11,1.59,1.59,0,0,1,.58.3,1.26,1.26,0,0,1,.35.5,1.67,1.67,0,0,1,.12.65,1.86,1.86,0,0,1,0,.42,1.61,1.61,0,0,1-.16.38,1.18,1.18,0,0,1-.25.3,1.38,1.38,0,0,1-.35.22,1.41,1.41,0,0,1,.46.17,1.47,1.47,0,0,1,.38.32,1.72,1.72,0,0,1,.26.46A1.81,1.81,0,0,1,118.22,35.78ZM117,33a1.31,1.31,0,0,0-.06-.41.78.78,0,0,0-.54-.5,1.67,1.67,0,0,0-.55-.07H115v2h.92a1.43,1.43,0,0,0,.51-.08.9.9,0,0,0,.31-.23.8.8,0,0,0,.19-.32A1.32,1.32,0,0,0,117,33Zm.36,2.81a1.44,1.44,0,0,0-.08-.49A.92.92,0,0,0,117,35a1.08,1.08,0,0,0-.41-.22,2.28,2.28,0,0,0-.63-.07h-1v2.17h1.17a1.77,1.77,0,0,0,.49-.06,1.27,1.27,0,0,0,.36-.2,1,1,0,0,0,.24-.33A1.06,1.06,0,0,0,117.37,35.83Z"/><path class="cls-2" d="M126.16,37.26a.79.79,0,0,1,0,.17.13.13,0,0,1,0,.1.24.24,0,0,1-.12,0h-.46l-.14,0a.1.1,0,0,1-.06,0,.16.16,0,0,1,0-.07l-.52-1.5H122.3l-.5,1.48a.2.2,0,0,1,0,.08s0,0-.07,0l-.12,0h-.44a.23.23,0,0,1-.12,0,.1.1,0,0,1,0-.1.45.45,0,0,1,0-.17l2-5.73a.19.19,0,0,1,.14-.14l.15,0h.48l.16,0a.19.19,0,0,1,.09.05.41.41,0,0,1,.05.09Zm-2.61-5.06h0l-1,3.07h2.11Z"/><path class="cls-2" d="M132.49,37.19a.71.71,0,0,1,0,.16.81.81,0,0,1,0,.11l0,.07-.08,0h-2.68a.31.31,0,0,1-.2-.07.3.3,0,0,1-.1-.26V31.5a.14.14,0,0,1,0-.07s0,0,.07,0a.35.35,0,0,1,.12,0h.39a.35.35,0,0,1,.12,0s.06,0,.07,0a.14.14,0,0,1,0,.07v5.34h2.17l.08,0,0,.06,0,.11A.81.81,0,0,1,132.49,37.19Z"/><path class="cls-2" d="M140.09,37.26a.45.45,0,0,1,0,.17.12.12,0,0,1,0,.1.33.33,0,0,1-.13,0h-.46l-.13,0a.18.18,0,0,1-.07,0l0-.07-.52-1.5h-2.52l-.5,1.48,0,.08-.07,0-.13,0h-.43a.32.32,0,0,1-.13,0,.13.13,0,0,1,0-.1.79.79,0,0,1,0-.17l2-5.73a.19.19,0,0,1,0-.09.19.19,0,0,1,.09-.05l.15,0h.48l.16,0a.23.23,0,0,1,.1.05.41.41,0,0,1,.05.09Zm-2.61-5.06h0l-1,3.07h2.11Z"/><path class="cls-2" d="M144.74,36a2.9,2.9,0,0,1-.07.68,1.28,1.28,0,0,1-.22.52,1.14,1.14,0,0,1-.42.33,1.54,1.54,0,0,1-.65.12l-.25,0-.24-.06-.19-.08s-.09,0-.1-.07l0,0,0-.07s0-.06,0-.1,0-.09,0-.15,0-.13,0-.17,0-.09,0-.11a.09.09,0,0,1,0-.06l.06,0a.16.16,0,0,1,.1,0l.14.08.19.08a1,1,0,0,0,.25,0,.79.79,0,0,0,.28,0,.43.43,0,0,0,.18-.15.85.85,0,0,0,.12-.3,3.49,3.49,0,0,0,0-.51V31.49a.14.14,0,0,1,0-.06s0,0,.07-.05l.12,0h.39l.12,0s.06,0,.07.05a.14.14,0,0,1,0,.06Z"/><path class="cls-2" d="M151.89,37.21c0,.06,0,.11,0,.15a.28.28,0,0,1,0,.11.1.1,0,0,1-.05.06l-.07,0h-2.91a.31.31,0,0,1-.2-.07.3.3,0,0,1-.1-.26V31.71a.29.29,0,0,1,.1-.26.32.32,0,0,1,.2-.08h2.88l.07,0,.05.07a.62.62,0,0,1,0,.1c0,.05,0,.1,0,.16s0,.11,0,.15a.81.81,0,0,1,0,.11l-.05.06-.07,0h-2.37V34h2a.09.09,0,0,1,.07,0,.1.1,0,0,1,.05.06.62.62,0,0,1,0,.1.81.81,0,0,1,0,.16.71.71,0,0,1,0,.15l0,.1a.12.12,0,0,1-.05,0l-.07,0h-2v2.21h2.4a.08.08,0,0,1,.07,0,.1.1,0,0,1,.05.06.23.23,0,0,1,0,.1S151.89,37.15,151.89,37.21Z"/></svg>