<svg id="Capa_1" data-name="Capa 1" xmlns="http://www.w3.org/2000/svg" width="152.88" height="38.65" viewBox="0 0 152.88 38.65"><defs><style>.cls-1,.cls-2{fill:#fff;}.cls-1{fill-rule:evenodd;}</style></defs><title>logo</title><path class="cls-1" d="M92.06,7.41c.1,0,.14.08.22.08s.22.12.25.25.09.44.14.66c.37,1.89.75,3.78,1.12,5.67,0,.2.07.41.12.61s.09.24.3.24h2.12c.24,0,.27,0,.23-.28-.19-1-.37-2-.55-3L94.54,3.82c-.17-.9-.33-1.81-.49-2.71A.89.89,0,0,1,94,1c0-.18,0-.23.21-.25a1.92,1.92,0,0,1,.24,0h7.59a1,1,0,0,1,.35.05.44.44,0,0,1,.32.35c0,.2.1.4.14.6q.7,3.36,1.42,6.72c.63,3,1.26,5.91,1.88,8.87.55,2.57,1.09,5.22,1.64,7.78.12.57,0,.69-.55.69H99.43a.82.82,0,0,1-.41-.05.68.68,0,0,1-.38-.51c-.27-1.49-.55-3.05-.84-4.53L97.29,18c-.09-.48-.1-.48-.59-.48H94.87c-.3,0-.35.07-.3.35l.18,1,1.17,6.32c.07.36,0,.54-.39.56H87.44a1.14,1.14,0,0,1-.68-.21.24.24,0,0,1-.1-.32c.12-.34.23-.68.33-1l2.1-7c.58-1.92,1.17-3.84,1.74-5.76.38-1.27.76-2.54,1.13-3.81A.74.74,0,0,1,92.06,7.41Z"/><path class="cls-1" d="M33.56,1.32c0-.14,0-.27,0-.41s.05-.2.18-.2a4,4,0,0,1,.49,0,10.89,10.89,0,0,1,2.58.61,11.51,11.51,0,0,1,3.56,2.13,11.17,11.17,0,0,1,1.35,1.4,12.59,12.59,0,0,1,2,3.46,13.37,13.37,0,0,1,.83,3.35,12.23,12.23,0,0,1,.1,1.59,13.81,13.81,0,0,1-1.2,5.53,12.43,12.43,0,0,1-1.95,3.06,12.08,12.08,0,0,1-2.15,1.95,11,11,0,0,1-5.05,1.92.79.79,0,0,1-.56-.08.41.41,0,0,1-.22-.41c0-.1,0-.21,0-.32S33.56,9.19,33.56,1.32Z"/><path class="cls-1" d="M31.89,1.32c0-.14,0-.27,0-.41s0-.2-.18-.2a4,4,0,0,0-.49,0,10.54,10.54,0,0,0-2.55.61,11.26,11.26,0,0,0-3.53,2.13,11.09,11.09,0,0,0-1.34,1.4,12.82,12.82,0,0,0-2,3.46A13.79,13.79,0,0,0,21,11.67a12.23,12.23,0,0,0-.1,1.59,14,14,0,0,0,1.19,5.53A12.69,12.69,0,0,0,24,21.85a11.62,11.62,0,0,0,2.13,1.95,10.81,10.81,0,0,0,5,1.92.79.79,0,0,0,.56-.08.43.43,0,0,0,.22-.41c0-.1,0-.21,0-.32S31.89,9.19,31.89,1.32Z"/><path class="cls-1" d="M139.31,13.26V25a2.24,2.24,0,0,1,0,.52c-.06.21-.13.28-.34.3H131a.75.75,0,0,1-.54-.16.34.34,0,0,1-.13-.28V2.13a8.7,8.7,0,0,0,0-1.25c0-.1.05-.16.15-.17l.26,0h8.15c.26.05.33.12.38.37a2.43,2.43,0,0,1,0,.47Z"/><path class="cls-1" d="M146.46,25.8h-5.19c-.29,0-.39-.24-.39-.52,0-1,0-9.59,0-12.9,0-2.61,0-10.09,0-11.22,0-.43,0-.44.39-.44h9.92a.85.85,0,0,1,.32,0c.22.09.27.21.12.4s-.32.37-.48.54c-.71.78-1.42,1.56-2.12,2.35-.47.53-.95,1-1.43,1.57-.62.68-1.23,1.38-1.85,2.07L144.36,9.2c-.44.48-.88,1-1.32,1.47-.21.24-.45.47-.66.73s-.53.58-.8.88-.21.31,0,.54l2.85,3.49,2.84,3.45,2.42,3c.67.83,1.35,1.65,2,2.47a1.12,1.12,0,0,1,.19.29c.05.16,0,.27-.18.29a1.67,1.67,0,0,1-.32,0Z"/><path class="cls-1" d="M76.28,13.31V25a2.11,2.11,0,0,1,0,.5c-.06.25-.12.31-.37.32H67.16a.73.73,0,0,1-.55-.15.33.33,0,0,1-.15-.29,1.82,1.82,0,0,1,0-.33,5.49,5.49,0,0,0,0-.81q0-11.5,0-23c0-.44,0-.44.44-.45h8.71c.43,0,.57.13.61.57,0,.12,0,.25,0,.38Z"/><path class="cls-1" d="M77.85,8.1V1.33c0-.48,0-.49.48-.53a10.71,10.71,0,0,1,1.79,0,10.36,10.36,0,0,1,2.65.51,6.86,6.86,0,0,1,2.52,1.46A7.28,7.28,0,0,1,87.55,7.2a8.58,8.58,0,0,1-.47,4.46,5.59,5.59,0,0,1-1,1.61,6.48,6.48,0,0,1-3.44,2.06,11.47,11.47,0,0,1-2.09.31,13.45,13.45,0,0,1-2.2-.07.67.67,0,0,1-.42-.2.34.34,0,0,1-.12-.28c0-.06,0-.12,0-.18V8.1Z"/><path class="cls-1" d="M46.22,13.14V1.22c0-.46,0-.5.49-.5h8.58c.39,0,.54.17.55.56V25a3.24,3.24,0,0,1,0,.44.33.33,0,0,1-.35.32H46.93a.83.83,0,0,1-.53-.13.36.36,0,0,1-.19-.33.48.48,0,0,0,0-.12v-12Z"/><path class="cls-1" d="M64.89,20.5v4.57a2.81,2.81,0,0,1,0,.29c0,.27-.12.36-.38.37H58.05a.77.77,0,0,1-.54-.16c-.13-.1-.13-.16,0-.27l.66-.93c.46-.65.92-1.32,1.38-2l3.8-5.47,1-1.5c.05-.07.1-.21.21-.16s.34.08.35.3,0,.21,0,.32Z"/><path class="cls-1" d="M13.08,25.75h-.79a.66.66,0,0,1-.41-.12c-.26-.17-.27-.21-.11-.47a3,3,0,0,0,0-3.27,10.22,10.22,0,0,0-1.14-1.56c-.76-.88-1.57-1.71-2.37-2.56a47.16,47.16,0,0,1-4.75-5.88A14,14,0,0,1,1.84,8.75a7,7,0,0,1-.47-2.52,8.57,8.57,0,0,1,.16-1.75A4.48,4.48,0,0,1,4.3,1.28,7,7,0,0,1,6.6.78c.34,0,.66-.05,1,0a2.32,2.32,0,0,1,.52.07.28.28,0,0,1,.22.4,1.94,1.94,0,0,1-.13.3A3.08,3.08,0,0,0,7.85,2.8a2.65,2.65,0,0,0,.31,1.45,9.19,9.19,0,0,0,1,1.39c.69.81,1.46,1.54,2.19,2.32s1.37,1.37,2,2.08,1.08,1.15,1.6,1.75,1,1.18,1.47,1.79A15.54,15.54,0,0,1,18.94,18a7,7,0,0,1,.38,2.69,5.58,5.58,0,0,1-.84,2.77,4.53,4.53,0,0,1-1.43,1.36,6.8,6.8,0,0,1-2.68.89A8,8,0,0,1,13.08,25.75Z"/><path class="cls-1" d="M5.63,25.76H1.68a.92.92,0,0,1-.53-.14A.34.34,0,0,1,1,25.28c0-.22,0-.44,0-.67V15.48c0-.19,0-.37,0-.56s0-.19.2-.15a.85.85,0,0,1,.54.36l2.52,3.09c.61.76,1.22,1.52,1.84,2.27l2.72,3.34L10,25.33c.17.22.1.39-.18.43H5.63Z"/><path class="cls-1" d="M17.45,5.34V9.26a2.71,2.71,0,0,1,0,.29.25.25,0,0,1-.41.2.77.77,0,0,1-.18-.18l-5-6.22L10.17,1.22a1.63,1.63,0,0,1-.11-.17c-.16-.23-.14-.27.12-.3H16.8a1.47,1.47,0,0,1,.21,0,.43.43,0,0,1,.44.48V5.34Z"/><path class="cls-1" d="M119.59,13.27V25.11c0,.1,0,.22,0,.32a.35.35,0,0,1-.38.36,2.91,2.91,0,0,1-.66-.08A10.51,10.51,0,0,1,114.28,24a10.23,10.23,0,0,1-3.21-3.58,14.2,14.2,0,0,1-1.5-4.92,21.65,21.65,0,0,1-.12-3.69A12.53,12.53,0,0,1,109.92,9a12.14,12.14,0,0,1,1.63-3.59A10.64,10.64,0,0,1,115,2.19a14.05,14.05,0,0,1,4-1.47.68.68,0,0,1,.4,0,.32.32,0,0,1,.21.29V13.27Z"/><path class="cls-1" d="M128.75,21.39v3.83a2.71,2.71,0,0,1,0,.29c0,.2-.09.27-.28.29h-6.65a.77.77,0,0,1-.55-.17c-.12-.1-.13-.12,0-.25l.51-.58c.84-1,1.68-2,2.51-3s1.62-1.91,2.42-2.87L128,17.31c.07-.07.12-.15.19-.21s.12-.21.27-.13.29.12.28.32a2.26,2.26,0,0,0,0,.26Z"/><path class="cls-1" d="M128.75,5.19V9a1.22,1.22,0,0,1,0,.38c-.06.15-.15.18-.3.11a.85.85,0,0,1-.27-.23l-3.48-4.18c-1-1.24-2.07-2.47-3.1-3.7L121.25,1s-.11-.1-.08-.17.14-.07.21-.07a1.92,1.92,0,0,1,.24,0h6.48a.48.48,0,0,1,.12,0c.4,0,.53.14.53.53Z"/><path class="cls-2" d="M4.7,36.14a1.71,1.71,0,0,1-.16.77,1.66,1.66,0,0,1-.43.58,2.08,2.08,0,0,1-.66.35,2.64,2.64,0,0,1-.81.12,3.36,3.36,0,0,1-.57-.05,3.71,3.71,0,0,1-.46-.13,1.55,1.55,0,0,1-.34-.16.74.74,0,0,1-.2-.14A.37.37,0,0,1,1,37.34a1.44,1.44,0,0,1,0-.24.81.81,0,0,1,0-.17.18.18,0,0,1,0-.11.09.09,0,0,1,0-.06l.07,0a.42.42,0,0,1,.18.08c.08.06.19.11.31.18l.45.18a2.28,2.28,0,0,0,.62.08,1.51,1.51,0,0,0,.48-.07,1.31,1.31,0,0,0,.37-.2.78.78,0,0,0,.24-.33,1,1,0,0,0,.09-.43.79.79,0,0,0-.12-.45,1.37,1.37,0,0,0-.31-.33A2.3,2.3,0,0,0,3,35.2L2.49,35a4.82,4.82,0,0,1-.5-.27,2.19,2.19,0,0,1-.44-.35,1.54,1.54,0,0,1-.31-.47,1.6,1.6,0,0,1-.12-.65,1.74,1.74,0,0,1,.14-.69A1.48,1.48,0,0,1,1.64,32a1.84,1.84,0,0,1,.59-.31A2.43,2.43,0,0,1,3,31.6a2.85,2.85,0,0,1,.41,0,2.36,2.36,0,0,1,.38.1,1.93,1.93,0,0,1,.32.13.78.78,0,0,1,.19.12l.06.07a.64.64,0,0,1,0,.07.28.28,0,0,1,0,.1.53.53,0,0,1,0,.14.81.81,0,0,1,0,.16.36.36,0,0,1,0,.11.09.09,0,0,1,0,.06l-.06,0a.47.47,0,0,1-.16-.07,3,3,0,0,0-.27-.15,1.67,1.67,0,0,0-.38-.15,1.49,1.49,0,0,0-.49-.07,1.2,1.2,0,0,0-.44.07.75.75,0,0,0-.49.45,1,1,0,0,0-.06.34.78.78,0,0,0,.12.44,1.2,1.2,0,0,0,.31.33,3.65,3.65,0,0,0,.44.26l.51.24a4.82,4.82,0,0,1,.5.27,2.22,2.22,0,0,1,.45.34,1.67,1.67,0,0,1,.31.47A1.56,1.56,0,0,1,4.7,36.14Z"/><path class="cls-2" d="M13.11,34.71a4.69,4.69,0,0,1-.18,1.35,2.86,2.86,0,0,1-.52,1,2.34,2.34,0,0,1-.86.65,3.06,3.06,0,0,1-1.22.22,3,3,0,0,1-1.18-.21,2,2,0,0,1-.82-.6,2.58,2.58,0,0,1-.49-1,5,5,0,0,1-.16-1.35,4.6,4.6,0,0,1,.18-1.33,2.49,2.49,0,0,1,.52-1,2.31,2.31,0,0,1,.86-.65,3.05,3.05,0,0,1,1.22-.23,3,3,0,0,1,1.16.21,2.12,2.12,0,0,1,.83.6,2.47,2.47,0,0,1,.49,1A4.88,4.88,0,0,1,13.11,34.71Zm-.86.06a5,5,0,0,0-.09-1,2.27,2.27,0,0,0-.3-.78,1.67,1.67,0,0,0-.57-.52,1.94,1.94,0,0,0-.88-.18,1.69,1.69,0,0,0-.88.2A1.64,1.64,0,0,0,9,33a2.1,2.1,0,0,0-.32.78,4.75,4.75,0,0,0-.1.94,5.16,5.16,0,0,0,.09,1,2.24,2.24,0,0,0,.3.79,1.51,1.51,0,0,0,.57.52,1.91,1.91,0,0,0,.88.18,1.83,1.83,0,0,0,.89-.2,1.51,1.51,0,0,0,.58-.54,2.23,2.23,0,0,0,.32-.79A4.86,4.86,0,0,0,12.25,34.77Z"/><path class="cls-2" d="M19.7,37.51c0,.07,0,.12,0,.16a.81.81,0,0,1,0,.11.22.22,0,0,1-.06.07l-.07,0H16.85a.31.31,0,0,1-.2-.07.3.3,0,0,1-.1-.26V31.82a.14.14,0,0,1,0-.07s0,0,.07,0l.12,0h.39l.12,0s.06,0,.07,0a.14.14,0,0,1,0,.07v5.34h2.17l.07,0,.06.06,0,.11S19.7,37.45,19.7,37.51Z"/><path class="cls-2" d="M27.32,35.59a3,3,0,0,1-.16,1,2,2,0,0,1-.47.75,1.79,1.79,0,0,1-.73.46A2.69,2.69,0,0,1,25,38a2.63,2.63,0,0,1-.91-.15,1.83,1.83,0,0,1-.71-.43,1.88,1.88,0,0,1-.45-.73,2.8,2.8,0,0,1-.16-1V31.82a.08.08,0,0,1,0-.07.09.09,0,0,1,.06,0l.12,0h.39l.13,0a.09.09,0,0,1,.06,0,.14.14,0,0,1,0,.07v3.73a2.39,2.39,0,0,0,.1.75,1.44,1.44,0,0,0,.3.53,1.27,1.27,0,0,0,.47.32,1.88,1.88,0,0,0,1.24,0,1.27,1.27,0,0,0,.47-.32,1.53,1.53,0,0,0,.29-.52,2.63,2.63,0,0,0,.1-.73V31.82a.08.08,0,0,1,0-.07.09.09,0,0,1,.06,0l.13,0h.38l.12,0,.07,0a.14.14,0,0,1,0,.07Z"/><path class="cls-2" d="M35.14,37a.53.53,0,0,1,0,.13s0,.07,0,.1l0,.08-.07.08-.2.14a2.47,2.47,0,0,1-.37.2,3.09,3.09,0,0,1-.51.15,2.48,2.48,0,0,1-.63.07,2.83,2.83,0,0,1-1.07-.2,2.26,2.26,0,0,1-.81-.59,2.89,2.89,0,0,1-.51-1,5,5,0,0,1,0-2.7,2.8,2.8,0,0,1,.55-1,2.3,2.3,0,0,1,.84-.64,2.54,2.54,0,0,1,1.08-.22,2.76,2.76,0,0,1,.51.05,2.06,2.06,0,0,1,.46.13,2.7,2.7,0,0,1,.38.17,1.36,1.36,0,0,1,.23.17l.08.09,0,.08s0,.07,0,.11v.15a.76.76,0,0,1,0,.16.31.31,0,0,1,0,.11s0,.06,0,.07l-.06,0a.35.35,0,0,1-.19-.09,3.6,3.6,0,0,0-.3-.21,2.74,2.74,0,0,0-.45-.2,2,2,0,0,0-.64-.1,1.6,1.6,0,0,0-1.31.65,2.55,2.55,0,0,0-.36.78,3.8,3.8,0,0,0-.13,1.06,4,4,0,0,0,.12,1,2.34,2.34,0,0,0,.36.76,1.68,1.68,0,0,0,.57.46,1.92,1.92,0,0,0,.77.15,2.06,2.06,0,0,0,.64-.09,2.88,2.88,0,0,0,.46-.2l.31-.2a.39.39,0,0,1,.19-.09h.06a.1.1,0,0,1,0,.05.37.37,0,0,1,0,.12S35.14,36.92,35.14,37Z"/><path class="cls-2" d="M39.18,37.75a.07.07,0,0,1,0,.06.1.1,0,0,1-.06,0l-.13,0h-.38l-.13,0a.18.18,0,0,1-.07,0,.13.13,0,0,1,0-.06V31.82a.08.08,0,0,1,0-.07s0,0,.07,0l.12,0H39l.13,0a.09.09,0,0,1,.06,0,.08.08,0,0,1,0,.07Z"/><path class="cls-2" d="M48.05,34.71a4.69,4.69,0,0,1-.18,1.35,3,3,0,0,1-.51,1,2.37,2.37,0,0,1-.87.65,3,3,0,0,1-1.21.22,3.09,3.09,0,0,1-1.19-.21,2,2,0,0,1-.82-.6,2.58,2.58,0,0,1-.49-1,5.43,5.43,0,0,1-.16-1.35,4.6,4.6,0,0,1,.18-1.33,2.62,2.62,0,0,1,.52-1,2.31,2.31,0,0,1,.86-.65,3.09,3.09,0,0,1,1.22-.23,3,3,0,0,1,1.17.21,2.16,2.16,0,0,1,.82.6,2.62,2.62,0,0,1,.5,1A5.33,5.33,0,0,1,48.05,34.71Zm-.86.06a5,5,0,0,0-.09-1,2.27,2.27,0,0,0-.3-.78,1.51,1.51,0,0,0-.57-.52,1.94,1.94,0,0,0-.88-.18,1.71,1.71,0,0,0-.88.2,1.64,1.64,0,0,0-.58.53,2.29,2.29,0,0,0-.32.78,4.76,4.76,0,0,0-.09.94,5.16,5.16,0,0,0,.09,1,2.06,2.06,0,0,0,.29.79,1.58,1.58,0,0,0,.57.52,1.93,1.93,0,0,0,.89.18,1.86,1.86,0,0,0,.89-.2,1.58,1.58,0,0,0,.58-.54,2.42,2.42,0,0,0,.31-.79A4.86,4.86,0,0,0,47.19,34.77Z"/><path class="cls-2" d="M56.08,37.53a.35.35,0,0,1,0,.16c0,.05,0,.09-.09.11a.41.41,0,0,1-.11.07l-.13,0h-.26a.69.69,0,0,1-.22,0,.4.4,0,0,1-.18-.1.74.74,0,0,1-.17-.18,2.13,2.13,0,0,1-.18-.31l-1.85-3.51q-.15-.27-.3-.57l-.27-.58h0c0,.23,0,.46,0,.7s0,.47,0,.71v3.73a.14.14,0,0,1,0,.06.13.13,0,0,1-.07,0l-.12,0H51.7l-.12,0a.18.18,0,0,1-.07,0,.14.14,0,0,1,0-.06v-5.7a.31.31,0,0,1,.11-.27.34.34,0,0,1,.23-.08h.4a.79.79,0,0,1,.23,0,.45.45,0,0,1,.17.08.71.71,0,0,1,.15.15c0,.07.09.15.14.25l1.43,2.71.25.48.24.47.22.45.22.44h0c0-.25,0-.51,0-.78V31.83a.14.14,0,0,1,0-.06s0,0,.07-.05l.12,0h.39l.12,0,.07.05a.14.14,0,0,1,0,.06Z"/><path class="cls-2" d="M63.23,37.53v.15a.28.28,0,0,1,0,.11.1.1,0,0,1,0,.06l-.07,0H60.16a.31.31,0,0,1-.2-.07.3.3,0,0,1-.1-.26V32a.3.3,0,0,1,.1-.26.31.31,0,0,1,.2-.07h3a.16.16,0,0,1,0,.07.3.3,0,0,1,0,.1c0,.05,0,.1,0,.16s0,.11,0,.15a.28.28,0,0,1,0,.11.09.09,0,0,1,0,.06l-.07,0H60.67v1.94h2a.08.08,0,0,1,.07,0,.1.1,0,0,1,0,.06.62.62,0,0,1,0,.1.81.81,0,0,1,0,.16.66.66,0,0,1,0,.15l0,.1a.12.12,0,0,1,0,.05l-.07,0h-2v2.21h2.4l.07,0a.1.1,0,0,1,0,.06.23.23,0,0,1,0,.1Z"/><path class="cls-2" d="M70,36.14a1.86,1.86,0,0,1-.16.77,1.69,1.69,0,0,1-.44.58,1.93,1.93,0,0,1-.65.35,2.76,2.76,0,0,1-.82.12,3.24,3.24,0,0,1-.56-.05,3.9,3.9,0,0,1-.47-.13,1.8,1.8,0,0,1-.34-.16.84.84,0,0,1-.19-.14.27.27,0,0,1-.08-.14.78.78,0,0,1,0-.24c0-.07,0-.13,0-.17a.81.81,0,0,1,0-.11.1.1,0,0,1,0-.06l.06,0a.41.41,0,0,1,.19.08,2.58,2.58,0,0,0,.31.18,3.49,3.49,0,0,0,.45.18,2.25,2.25,0,0,0,.61.08,1.43,1.43,0,0,0,.48-.07,1.37,1.37,0,0,0,.38-.2,1,1,0,0,0,.24-.33,1.14,1.14,0,0,0,.08-.43.79.79,0,0,0-.12-.45,1.32,1.32,0,0,0-.3-.33,2.65,2.65,0,0,0-.44-.25L67.76,35a4.82,4.82,0,0,1-.5-.27,2.12,2.12,0,0,1-.43-.35,1.56,1.56,0,0,1-.32-.47,1.6,1.6,0,0,1-.12-.65,1.74,1.74,0,0,1,.14-.69,1.39,1.39,0,0,1,.39-.51,1.79,1.79,0,0,1,.58-.31,2.5,2.5,0,0,1,.74-.11,2.71,2.71,0,0,1,.4,0,2.22,2.22,0,0,1,.39.1l.32.13.18.12.06.07a.14.14,0,0,1,0,.07.25.25,0,0,1,0,.1v.3a.52.52,0,0,0,0,.11.15.15,0,0,1,0,.06l-.06,0a.5.5,0,0,1-.17-.07l-.26-.15a1.88,1.88,0,0,0-.38-.15,1.53,1.53,0,0,0-.49-.07,1.16,1.16,0,0,0-.44.07.73.73,0,0,0-.31.18.88.88,0,0,0-.25.61.78.78,0,0,0,.12.44,1.37,1.37,0,0,0,.31.33,3.14,3.14,0,0,0,.45.26l.5.24q.25.12.51.27a2.46,2.46,0,0,1,.44.34,1.7,1.7,0,0,1,.32.47A1.56,1.56,0,0,1,70,36.14Z"/><path class="cls-2" d="M82.3,34.69a4.22,4.22,0,0,1-.2,1.4,2.56,2.56,0,0,1-.59,1,2.39,2.39,0,0,1-.94.59,4.19,4.19,0,0,1-1.35.19H77.94a.31.31,0,0,1-.2-.07.3.3,0,0,1-.1-.26V32a.3.3,0,0,1,.1-.26.31.31,0,0,1,.2-.07h1.37a3.69,3.69,0,0,1,1.33.2,2.45,2.45,0,0,1,.92.6,2.51,2.51,0,0,1,.55.94A3.77,3.77,0,0,1,82.3,34.69Zm-.84,0a3.5,3.5,0,0,0-.13-.94,2.08,2.08,0,0,0-.38-.74,1.75,1.75,0,0,0-.66-.5,2.68,2.68,0,0,0-1-.17h-.82v4.8h.83a3.12,3.12,0,0,0,1-.14,1.61,1.61,0,0,0,.66-.46,2,2,0,0,0,.4-.76A3.9,3.9,0,0,0,81.46,34.73Z"/><path class="cls-2" d="M89.09,37.53a.66.66,0,0,1,0,.15.29.29,0,0,1,0,.11s0,.05,0,.06l-.07,0H86a.33.33,0,0,1-.21-.07.33.33,0,0,1-.09-.26V32a.33.33,0,0,1,.09-.26A.33.33,0,0,1,86,31.7H89a.18.18,0,0,1,.05.07l0,.1a.81.81,0,0,1,0,.16.66.66,0,0,1,0,.15.81.81,0,0,1,0,.11.1.1,0,0,1-.05.06l-.07,0H86.52v1.94h2a.11.11,0,0,1,.07,0s0,0,.05.06a.62.62,0,0,1,0,.1s0,.1,0,.16,0,.11,0,.15l0,.1s0,0-.05.05l-.07,0h-2v2.21h2.41l.07,0s0,0,0,.06a.24.24,0,0,1,0,.1A.81.81,0,0,1,89.09,37.53Z"/><path class="cls-2" d="M100.29,37.53a.66.66,0,0,1,0,.15.81.81,0,0,1,0,.11.17.17,0,0,1-.06.06l-.06,0H97.21a.28.28,0,0,1-.29-.33V32a.28.28,0,0,1,.29-.33h3a.18.18,0,0,1,0,.07l0,.1a.81.81,0,0,1,0,.16.66.66,0,0,1,0,.15.81.81,0,0,1,0,.11.1.1,0,0,1,0,.06l-.07,0H97.72v1.94h2a.07.07,0,0,1,.06,0,.17.17,0,0,1,.06.06.62.62,0,0,1,0,.1s0,.1,0,.16,0,.11,0,.15l0,.1-.06.05-.06,0h-2v2.21h2.41l.06,0a.17.17,0,0,1,.06.06.62.62,0,0,1,0,.1A.81.81,0,0,1,100.29,37.53Z"/><path class="cls-2" d="M110.37,37.75a.14.14,0,0,1,0,.06.13.13,0,0,1-.07,0l-.12,0h-.39l-.12,0a.13.13,0,0,1-.07,0,.14.14,0,0,1,0-.06V32.37h0l-2.13,5.4,0,.06-.08,0-.12,0h-.33a.35.35,0,0,1-.11,0l-.08,0a.09.09,0,0,1,0,0l-2-5.4h0v5.38a.14.14,0,0,1,0,.06.13.13,0,0,1-.07,0l-.12,0H104l-.13,0a.1.1,0,0,1-.06,0,.14.14,0,0,1,0-.06V32.07a.35.35,0,0,1,.11-.29.34.34,0,0,1,.23-.08h.5l.26,0a.53.53,0,0,1,.2.09.75.75,0,0,1,.15.16c0,.07.07.14.1.23l1.73,4.47h0l1.81-4.46A1.08,1.08,0,0,1,109,32a.56.56,0,0,1,.14-.16.51.51,0,0,1,.16-.09.68.68,0,0,1,.21,0H110a.34.34,0,0,1,.14,0,.24.24,0,0,1,.11.06.35.35,0,0,1,.07.12.4.4,0,0,1,0,.17Z"/><path class="cls-2" d="M118.15,36.1a1.9,1.9,0,0,1-.07.54,1.63,1.63,0,0,1-.21.44,1.43,1.43,0,0,1-.31.34,2.22,2.22,0,0,1-.42.25,1.94,1.94,0,0,1-.5.15,3.54,3.54,0,0,1-.6,0h-1.59a.31.31,0,0,1-.2-.07.3.3,0,0,1-.1-.26V32a.3.3,0,0,1,.1-.26.31.31,0,0,1,.2-.07h1.38a3.16,3.16,0,0,1,.89.1,1.54,1.54,0,0,1,.58.31,1.26,1.26,0,0,1,.35.49,1.69,1.69,0,0,1,.12.66,1.52,1.52,0,0,1-.06.42,1.31,1.31,0,0,1-.15.37,1.42,1.42,0,0,1-.25.3,1.38,1.38,0,0,1-.35.22,1.5,1.5,0,0,1,.46.17,1.47,1.47,0,0,1,.38.32,1.89,1.89,0,0,1,.26.46A1.81,1.81,0,0,1,118.15,36.1Zm-1.21-2.76a1.31,1.31,0,0,0-.06-.41.78.78,0,0,0-.54-.5,2,2,0,0,0-.55-.07H115v2h.92a1.16,1.16,0,0,0,.5-.08,1,1,0,0,0,.32-.22.92.92,0,0,0,.19-.33A1.32,1.32,0,0,0,116.94,33.34Zm.36,2.81a1.22,1.22,0,0,0-.09-.49.81.81,0,0,0-.25-.35,1.08,1.08,0,0,0-.41-.22,2.28,2.28,0,0,0-.63-.07h-1v2.17h1.17a1.65,1.65,0,0,0,.48-.06,1.2,1.2,0,0,0,.37-.2,1,1,0,0,0,.24-.33A1.06,1.06,0,0,0,117.3,36.15Z"/><path class="cls-2" d="M126.09,37.58c0,.07,0,.13,0,.17a.12.12,0,0,1,0,.1.28.28,0,0,1-.12,0h-.47l-.13,0a.1.1,0,0,1-.06,0,.16.16,0,0,1,0-.07l-.52-1.5h-2.53l-.49,1.48a.2.2,0,0,1,0,.08l-.07,0-.13,0h-.43a.23.23,0,0,1-.12,0,.11.11,0,0,1,0-.1l0-.16,2-5.74a.19.19,0,0,1,.14-.14l.15,0h.48l.16,0a.15.15,0,0,1,.09.06.22.22,0,0,1,0,.08Zm-2.61-5.06h0l-1,3.07h2.1Z"/><path class="cls-2" d="M132.41,37.51v.16a.28.28,0,0,1,0,.11.13.13,0,0,1-.05.07l-.07,0h-2.68a.31.31,0,0,1-.2-.07.3.3,0,0,1-.1-.26V31.82a.14.14,0,0,1,0-.07.09.09,0,0,1,.06,0l.13,0h.39l.12,0,.07,0a.14.14,0,0,1,0,.07v5.34h2.17l.07,0,.05.06a.36.36,0,0,1,0,.11Z"/><path class="cls-2" d="M140,37.58a.79.79,0,0,1,0,.17.12.12,0,0,1,0,.1.24.24,0,0,1-.12,0h-.47l-.13,0a.1.1,0,0,1-.06,0,.16.16,0,0,1,0-.07l-.52-1.5h-2.52l-.5,1.48a.2.2,0,0,1,0,.08s0,0-.07,0l-.12,0H135a.23.23,0,0,1-.12,0,.1.1,0,0,1,0-.1.41.41,0,0,1,0-.16l2-5.74a.19.19,0,0,1,.14-.14l.15,0h.48l.16,0a.15.15,0,0,1,.09.06.22.22,0,0,1,0,.08Zm-2.61-5.06h0l-1,3.07h2.11Z"/><path class="cls-2" d="M144.66,36.32a3.55,3.55,0,0,1-.06.67,1.37,1.37,0,0,1-.23.52,1,1,0,0,1-.42.33,1.49,1.49,0,0,1-.64.12l-.26,0-.24-.06-.19-.08-.1-.07,0,0,0-.07a.3.3,0,0,1,0-.1v-.32a.53.53,0,0,1,0-.11.15.15,0,0,1,0-.06l.07,0a.14.14,0,0,1,.09,0l.14.08.19.08a1,1,0,0,0,.26,0,.77.77,0,0,0,.27,0,.45.45,0,0,0,.19-.15.86.86,0,0,0,.11-.3,3.29,3.29,0,0,0,0-.51V31.81a.07.07,0,0,1,0-.06.09.09,0,0,1,.06,0,.23.23,0,0,1,.13,0h.38a.23.23,0,0,1,.13,0,.09.09,0,0,1,.06,0,.07.07,0,0,1,0,.06Z"/><path class="cls-2" d="M151.81,37.53c0,.06,0,.11,0,.15a.81.81,0,0,1,0,.11l-.06.06-.07,0h-2.91a.31.31,0,0,1-.2-.07.3.3,0,0,1-.1-.26V32a.3.3,0,0,1,.1-.26.31.31,0,0,1,.2-.07h3a.18.18,0,0,1,0,.07l0,.1a.81.81,0,0,1,0,.16.66.66,0,0,1,0,.15.81.81,0,0,1,0,.11.1.1,0,0,1,0,.06l-.07,0h-2.37v1.94h2a.08.08,0,0,1,.07,0,.1.1,0,0,1,0,.06.15.15,0,0,1,0,.1.81.81,0,0,1,0,.16.66.66,0,0,1,0,.15.17.17,0,0,1,0,.1.12.12,0,0,1,0,.05l-.07,0h-2v2.21h2.4l.07,0,.06.06a.62.62,0,0,1,0,.1C151.8,37.42,151.81,37.47,151.81,37.53Z"/></svg>